<?xml version="1.0" encoding="UTF-8" standalone="no"?>
<!DOCTYPE svg PUBLIC "-//W3C//DTD SVG 1.1//EN"
 "http://www.w3.org/Graphics/SVG/1.1/DTD/svg11.dtd">
<!-- Generated by graphviz version 2.38.0 (20140413.2041)
 -->
<!-- Title: G Pages: 1 -->
<svg width="163pt" height="214pt"
 viewBox="0.00 0.00 163.00 214.00" xmlns="http://www.w3.org/2000/svg" xmlns:xlink="http://www.w3.org/1999/xlink">
<g id="graph0" class="graph" transform="scale(1 1) rotate(0) translate(4 210)">
<title>G</title>
<polygon fill="white" stroke="none" points="-4,4 -4,-210 159,-210 159,4 -4,4"/>
<g id="clust1" class="cluster"><title>cluster_Global</title>
<path fill="none" stroke="gray" d="M20,-8C20,-8 135,-8 135,-8 141,-8 147,-14 147,-20 147,-20 147,-186 147,-186 147,-192 141,-198 135,-198 135,-198 20,-198 20,-198 14,-198 8,-192 8,-186 8,-186 8,-20 8,-20 8,-14 14,-8 20,-8"/>
<text text-anchor="middle" x="77.5" y="-185.2" font-family="Times New Roman,serif" font-size="11.00" fill="gray">Global</text>
</g>
<g id="clust2" class="cluster"><title>cluster_\Fake</title>
<path fill="none" stroke="gray" d="M28,-16C28,-16 127,-16 127,-16 133,-16 139,-22 139,-28 139,-28 139,-158 139,-158 139,-164 133,-170 127,-170 127,-170 28,-170 28,-170 22,-170 16,-164 16,-158 16,-158 16,-28 16,-28 16,-22 22,-16 28,-16"/>
<text text-anchor="middle" x="77.5" y="-157.2" font-family="Times New Roman,serif" font-size="11.00" fill="gray">Fake</text>
</g>
<g id="clust3" class="cluster"><title>cluster_\Fake\Factory</title>
<path fill="none" stroke="gray" d="M36,-70C36,-70 119,-70 119,-70 125,-70 131,-76 131,-82 131,-82 131,-130 131,-130 131,-136 125,-142 119,-142 119,-142 36,-142 36,-142 30,-142 24,-136 24,-130 24,-130 24,-82 24,-82 24,-76 30,-70 36,-70"/>
<text text-anchor="middle" x="77.5" y="-129.2" font-family="Times New Roman,serif" font-size="11.00" fill="gray">Factory</text>
</g>
<!-- \\Fake\\Factory\\FakeFactory -->
<g id="node1" class="node"><title>\\Fake\\Factory\\FakeFactory</title>
<polygon fill="none" stroke="black" points="123,-114 32,-114 32,-78 123,-78 123,-114"/>
<text text-anchor="middle" x="77.5" y="-93.2" font-family="Courier,monospace" font-size="11.00">FakeFactory</text>
</g>
<!-- \\Fake\\Fake -->
<g id="node2" class="node"><title>\\Fake\\Fake</title>
<polygon fill="none" stroke="black" points="104.5,-60 50.5,-60 50.5,-24 104.5,-24 104.5,-60"/>
<text text-anchor="middle" x="77.5" y="-39.2" font-family="Courier,monospace" font-size="11.00">Fake</text>
</g>
</g>
</svg>
